<?xml version="1.0" encoding="utf-8"?>
<!-- Generator: Adobe Illustrator 24.3.0, SVG Export Plug-In . SVG Version: 6.00 Build 0)  -->
<svg version="1.1" id="Capa_1" xmlns="http://www.w3.org/2000/svg" xmlns:xlink="http://www.w3.org/1999/xlink" x="0px" y="0px"
	 viewBox="0 0 14 15" style="enable-background:new 0 0 14 15;" xml:space="preserve">
<style type="text/css">
	.st0{fill:#FFFFFF;}
</style>
<g>
	<g>
		<g>
			<path class="st0" d="M1.1,11.9L1.1,11.9L5,11C5,11,5.1,11,5.2,11l6.4-6.4c0.5-0.5,0.7-1.1,0.7-1.8c0-0.7-0.3-1.3-0.7-1.8
				c-0.5-0.5-1.1-0.7-1.8-0.7C9.2,0.2,8.5,0.5,8.1,1L1.6,7.4c-0.1,0-0.1,0.1-0.1,0.2l-0.8,3.8c0,0.1,0,0.3,0.1,0.4
				C0.9,11.8,1,11.9,1.1,11.9z M9.8,1c0.9,0,1.7,0.8,1.7,1.7c0,0,0,0,0,0c0,0.5-0.2,0.9-0.5,1.2L8.6,1.5C9,1.2,9.4,1,9.8,1z
				 M8.1,2.1l2.4,2.4l-5.6,5.6L2.5,7.7L8.1,2.1z M2.1,8.5l2,2L1.6,11L2.1,8.5z"/>
			<path class="st0" d="M13.6,14H0.4C0.2,14,0,14.2,0,14.4s0.2,0.4,0.4,0.4h13.2c0.2,0,0.4-0.2,0.4-0.4S13.8,14,13.6,14z"/>
		</g>
	</g>
</g>
</svg>
