<?xml version="1.0" encoding="utf-8"?>
<!-- Generator: Adobe Illustrator 24.1.1, SVG Export Plug-In . SVG Version: 6.00 Build 0)  -->
<svg version="1.1" id="Layer_1" xmlns="http://www.w3.org/2000/svg" xmlns:xlink="http://www.w3.org/1999/xlink" x="0px" y="0px"
	 viewBox="0 0 132.1 41" style="enable-background:new 0 0 132.1 41;" xml:space="preserve">
<style type="text/css">
	.st0{fill:url(#SVGID_1_);}
	.st1{fill:url(#SVGID_2_);}
	.st2{fill:url(#SVGID_3_);}
	.st3{fill:url(#SVGID_4_);}
	.st4{fill:url(#SVGID_5_);}
	.st5{fill:url(#SVGID_6_);}
	.st6{fill:url(#SVGID_7_);}
	.st7{fill:#484344;}
</style>
<g>
	<g>
		<g>
			
				<linearGradient id="SVGID_1_" gradientUnits="userSpaceOnUse" x1="131.8935" y1="284.9393" x2="161.6113" y2="284.9393" gradientTransform="matrix(1 0 0 -1 -99.02 298.106)">
				<stop  offset="0" style="stop-color:#D54A9A"/>
				<stop  offset="1" style="stop-color:#952A81"/>
			</linearGradient>
			<path class="st0" d="M62.51,3.97c0.08-0.85-0.07-1.72,0.04-2.56c0.15-1.2-0.29-1.5-1.47-1.33c-4.74,0.68-8.45,3-10.27,7.4
				c-0.95,2.31-2.22,2.6-4.24,2.4c-0.7-0.07-0.97-0.23-1.23-0.93c-1.97-5.22-5.75-8.2-11.31-8.9c-0.8-0.1-1.2,0.05-1.15,1
				c0.08,1.49,0.05,2.99,0.02,4.48c-0.01,0.69,0.09,1.03,0.94,1.16c3.39,0.52,5.66,3.25,5.62,6.59c-0.03,3.24-2.35,5.9-5.71,6.38
				c-0.8,0.12-0.87,0.45-0.86,1.08c0.02,1.49,0.06,2.99-0.02,4.48c-0.06,1.01,0.39,1.16,1.24,1.06c4.86-0.6,8.63-2.98,10.54-7.47
				c0.91-2.13,2.01-2.53,3.99-2.38c1.08,0.09,1.31,0.46,1.7,1.67c1.2,3.71,4.21,6.56,7.99,7.51c3.19,0.8,4.39,1.29,4.22-0.6
				c-0.11-1.3-0.08-2.62-0.01-3.92c0.05-0.95-0.13-1.33-1.22-1.49c-2.84-0.4-5.15-3-5.32-5.69c-0.22-3.37,1.5-6.36,4.57-6.94
				C62.62,6.59,62.73,5.63,62.51,3.97z"/>
			
				<linearGradient id="SVGID_2_" gradientUnits="userSpaceOnUse" x1="156.2316" y1="284.8765" x2="160.3259" y2="284.8765" gradientTransform="matrix(1 0 0 -1 -99.02 298.106)">
				<stop  offset="0" style="stop-color:#D54A9A"/>
				<stop  offset="1" style="stop-color:#952A81"/>
			</linearGradient>
			<path class="st1" d="M61.05,10.12c-0.41-0.56-1.28-0.18-1.95-0.19c-1.81-0.01-1.81,0-1.81,3.03c0,0.05,0,0.09,0,0.14
				c0.05,1.1-0.29,2.6,0.13,3.2c0.4,0.57,1.27,0.22,1.88,0.27c0.67-0.05,1.49,0.28,1.83-0.25c0.3-0.48,0.11-1.9,0.08-2.9
				C61.18,12.29,61.53,10.78,61.05,10.12z"/>
			
				<linearGradient id="SVGID_3_" gradientUnits="userSpaceOnUse" x1="133.2481" y1="284.8763" x2="137.3422" y2="284.8763" gradientTransform="matrix(1 0 0 -1 -99.02 298.106)">
				<stop  offset="0" style="stop-color:#D54A9A"/>
				<stop  offset="1" style="stop-color:#952A81"/>
			</linearGradient>
			<path class="st2" d="M38.24,12.97c0-3.03,0-3.04-1.81-3.03c-0.67,0-1.54-0.37-1.95,0.19c-0.48,0.65-0.12,2.17-0.16,3.3
				c-0.03,1-0.23,2.42,0.08,2.9c0.34,0.53,1.16,0.2,1.83,0.25c0.61-0.05,1.48,0.3,1.88-0.27c0.42-0.6,0.09-2.1,0.13-3.2
				C38.24,13.06,38.24,13.02,38.24,12.97z"/>
		</g>
		
			<linearGradient id="SVGID_4_" gradientUnits="userSpaceOnUse" x1="99.02" y1="284.8762" x2="128.702" y2="284.8762" gradientTransform="matrix(1 0 0 -1 -99.02 298.106)">
			<stop  offset="0" style="stop-color:#D54A9A"/>
			<stop  offset="1" style="stop-color:#952A81"/>
		</linearGradient>
		<path class="st3" d="M28.13,19.72c-5.08,0.04-10.17,0.03-15.25-0.02c-3.37-0.03-6.21-2.89-6.27-6.25c0-0.09,0-8.44,0-10.32
			c0-0.67,0.02-1.34,0.03-2.01C6.64,0.41,6.6,0.05,5.69,0.14c-1.39,0.13-2.82,0.18-4.2,0C0.32-0.01,0.06,0.38,0.01,1.21
			c0-0.06,0-0.12,0-0.16c0,0.05,0,0.1,0,0.17C0,1.35,0,1.5,0,1.67c0,0.51,0.01,1.01,0.01,1.52c0,3.82,0,10.14,0,10.18
			c0.1,7.2,5.89,12.94,13.13,12.96c2.47,0.01,4.94,0,7.42,0c0,0,0,0.01,0,0.01c2.71,0,5.41-0.02,8.12,0.01
			c0.71,0.01,1.06-0.05,0.98-0.95c-0.13-1.39-0.18-2.81,0-4.19C29.83,19.84,29.26,19.71,28.13,19.72z"/>
		<g>
			
				<linearGradient id="SVGID_5_" gradientUnits="userSpaceOnUse" x1="235.3487" y1="284.9375" x2="168.3987" y2="284.9375" gradientTransform="matrix(1 0 0 -1 -99.02 298.106)">
				<stop  offset="0" style="stop-color:#2A85C3"/>
				<stop  offset="1" style="stop-color:#26A8E0"/>
			</linearGradient>
			<path class="st4" d="M85.56,3.36c0-0.56,0-1.12,0-1.68c0-1.81,0-1.81-1.74-1.54c-6.39,0.99-10.95,5.95-11.4,12.43
				c-0.31,4.51-1.59,6.06-5.96,7.15c-0.57,0.14-0.6,0.41-0.6,0.87c0.02,1.63,0.07,3.27-0.02,4.89c-0.05,0.86,0.33,0.86,0.98,0.84
				c5.55-0.16,11.11-5.09,11.93-10.61c0.14-0.97,0.24-1.94,0.29-2.92c0.17-2.92,2.28-5.54,5.16-5.97c1.28-0.19,1.48-0.73,1.37-1.79
				C85.51,4.48,85.56,3.92,85.56,3.36z"/>
			
				<linearGradient id="SVGID_6_" gradientUnits="userSpaceOnUse" x1="235.3471" y1="284.9012" x2="168.3996" y2="284.9012" gradientTransform="matrix(1 0 0 -1 -99.02 298.106)">
				<stop  offset="0" style="stop-color:#2A85C3"/>
				<stop  offset="1" style="stop-color:#26A8E0"/>
			</linearGradient>
			<path class="st5" d="M95.47,1.26c0-0.79-0.39-1.27-1.21-1.24c-1.58,0.05-2.59,0.06-4.17,0c-0.79-0.03-1.24,0.47-1.23,1.15
				c0.03,4.1,0.01,8.04,0.01,12.14c0,5.58,0,9.17-0.02,11.52c-0.01,0.84,0.32,1.63,1.31,1.56c1.49-0.09,2.49-0.07,3.98,0
				c0.89,0.04,1.33-0.44,1.33-1.28C95.43,17.03,95.44,9.32,95.47,1.26z"/>
			
				<linearGradient id="SVGID_7_" gradientUnits="userSpaceOnUse" x1="235.3553" y1="284.9392" x2="168.3935" y2="284.9392" gradientTransform="matrix(1 0 0 -1 -99.02 298.106)">
				<stop  offset="0" style="stop-color:#2A85C3"/>
				<stop  offset="1" style="stop-color:#26A8E0"/>
			</linearGradient>
			<path class="st6" d="M125.78,1.88c-4.06-2.33-10.19-2.9-14.41,0.65c-0.72,0.6-0.83,1.1-0.34,1.74c0.86,1.13,1.3,1.77,1.95,3.23
				c0.33,0.74,1.07,0.91,1.85,0.52c2.61-1.3,6.07-1.82,8.21-0.03c1.98,1.65,2.6,3.87,2.31,6.37c-0.12,1.01-0.49,1.96-1.11,2.77
				c-1.3,1.69-3.49,2.8-5.64,2.69c-2.32-0.12-4.66-1.21-5.74-3.34c-0.27-0.52-0.45-1.08-0.59-1.65c-0.14-0.59-0.18-1.23-0.27-1.84
				c-0.08-0.57-0.17-1.13-0.26-1.7c-0.17-0.98-0.37-1.96-0.72-2.9c-1.04-2.76-3.15-5.19-5.73-6.61c-0.73-0.4-1.52-0.77-2.3-1.03
				c-1.03-0.34-2.09-0.53-3.16-0.68c-0.77-0.1-1.13,0.12-1.08,0.96c0.05,0.79,0.01,1.59,0.01,2.38c0,0.23,0,0.47,0,0.7
				c0,2.24,0,2.24,2.11,2.9c2.69,0.84,4.41,3.26,4.52,6.38c0.13,3.82,1.79,7.69,4.84,10.07c1.91,1.49,4.12,2.42,6.51,2.76
				c2.08,0.29,4.13,0.09,6.13-0.53c4.81-1.49,7.83-4.86,8.95-9.82C133,10.48,130.61,4.65,125.78,1.88z"/>
		</g>
	</g>
	<g>
		<path class="st7" d="M4.44,37.73l0.84-3.34h0.75l-1.27,4.37H4.15l-1.06-3.31l-1.03,3.31H1.44l-1.27-4.37h0.74l0.86,3.27l1.02-3.27
			h0.6L4.44,37.73z"/>
		<path class="st7" d="M8.6,38.84c-0.59,0-1.07-0.19-1.45-0.58s-0.56-0.91-0.56-1.56v-0.14c0-0.43,0.08-0.82,0.25-1.16
			s0.4-0.61,0.69-0.8s0.62-0.29,0.97-0.29c0.57,0,1.01,0.19,1.33,0.56c0.31,0.37,0.47,0.91,0.47,1.61v0.31H7.34
			c0.01,0.43,0.14,0.78,0.38,1.04c0.24,0.27,0.55,0.4,0.92,0.4c0.26,0,0.49-0.05,0.67-0.16c0.18-0.11,0.34-0.25,0.48-0.43l0.46,0.36
			C9.88,38.56,9.33,38.84,8.6,38.84z M8.51,34.92c-0.3,0-0.55,0.11-0.76,0.33c-0.2,0.22-0.33,0.53-0.38,0.92h2.19v-0.06
			c-0.02-0.38-0.12-0.67-0.31-0.88C9.07,35.03,8.82,34.92,8.51,34.92z"/>
		<path class="st7" d="M13.03,36.54c0-0.67,0.16-1.21,0.48-1.62c0.32-0.41,0.73-0.61,1.25-0.61c0.51,0,0.92,0.18,1.22,0.53v-2.28
			h0.75v6.2h-0.69L16,38.29c-0.3,0.37-0.71,0.55-1.25,0.55c-0.51,0-0.92-0.21-1.24-0.62c-0.32-0.41-0.48-0.96-0.48-1.62V36.54z
			 M13.78,36.62c0,0.5,0.1,0.88,0.31,1.16c0.2,0.28,0.49,0.42,0.85,0.42c0.47,0,0.82-0.21,1.04-0.64v-2.01
			c-0.22-0.41-0.57-0.62-1.03-0.62c-0.37,0-0.65,0.14-0.86,0.42S13.78,36.07,13.78,36.62z"/>
		<path class="st7" d="M17.88,33.23c0-0.12,0.04-0.22,0.11-0.31s0.18-0.13,0.33-0.13s0.26,0.04,0.33,0.13
			c0.08,0.08,0.11,0.19,0.11,0.31c0,0.12-0.04,0.22-0.11,0.3c-0.08,0.08-0.19,0.12-0.33,0.12s-0.25-0.04-0.33-0.12
			C17.92,33.45,17.88,33.35,17.88,33.23z M18.69,38.76h-0.75v-4.37h0.75V38.76z"/>
		<path class="st7" d="M19.71,36.54c0-0.68,0.16-1.22,0.47-1.63c0.31-0.4,0.73-0.6,1.25-0.6c0.53,0,0.95,0.19,1.25,0.57l0.04-0.48
			h0.68v4.27c0,0.57-0.17,1.01-0.5,1.34c-0.34,0.33-0.79,0.49-1.35,0.49c-0.31,0-0.62-0.07-0.92-0.2c-0.3-0.13-0.53-0.32-0.69-0.55
			l0.39-0.45c0.32,0.4,0.71,0.59,1.18,0.59c0.36,0,0.65-0.1,0.85-0.31c0.2-0.2,0.31-0.49,0.31-0.86v-0.38
			c-0.3,0.34-0.71,0.52-1.22,0.52c-0.51,0-0.93-0.21-1.24-0.62S19.71,37.25,19.71,36.54z M20.46,36.62c0,0.49,0.1,0.88,0.3,1.16
			c0.2,0.28,0.48,0.42,0.85,0.42c0.47,0,0.82-0.21,1.04-0.64v-2c-0.23-0.42-0.57-0.63-1.03-0.63c-0.36,0-0.65,0.14-0.85,0.42
			C20.56,35.65,20.46,36.07,20.46,36.62z"/>
		<path class="st7" d="M24.53,33.23c0-0.12,0.04-0.22,0.11-0.31s0.18-0.13,0.33-0.13s0.26,0.04,0.33,0.13
			c0.08,0.08,0.11,0.19,0.11,0.31c0,0.12-0.04,0.22-0.11,0.3c-0.08,0.08-0.19,0.12-0.33,0.12s-0.25-0.04-0.33-0.12
			C24.57,33.45,24.53,33.35,24.53,33.23z M25.34,38.76h-0.75v-4.37h0.75V38.76z"/>
		<path class="st7" d="M27.55,33.33v1.06h0.82v0.58h-0.82v2.71c0,0.18,0.04,0.31,0.11,0.39c0.07,0.09,0.2,0.13,0.37,0.13
			c0.09,0,0.2-0.02,0.36-0.05v0.6c-0.2,0.05-0.39,0.08-0.57,0.08c-0.33,0-0.59-0.1-0.76-0.3c-0.17-0.2-0.25-0.49-0.25-0.86v-2.71
			h-0.8v-0.58h0.8v-1.06H27.55z"/>
		<path class="st7" d="M29.24,33.23c0-0.12,0.04-0.22,0.11-0.31s0.18-0.13,0.33-0.13s0.26,0.04,0.33,0.13
			c0.08,0.08,0.11,0.19,0.11,0.31c0,0.12-0.04,0.22-0.11,0.3c-0.08,0.08-0.19,0.12-0.33,0.12s-0.25-0.04-0.33-0.12
			C29.28,33.45,29.24,33.35,29.24,33.23z M30.05,38.76H29.3v-4.37h0.75V38.76z"/>
		<path class="st7" d="M31.95,38.15h2.56v0.61h-3.47v-0.55l2.41-3.2h-2.38v-0.62h3.31v0.53L31.95,38.15z"/>
		<path class="st7" d="M37.1,38.84c-0.59,0-1.07-0.19-1.45-0.58s-0.56-0.91-0.56-1.56v-0.14c0-0.43,0.08-0.82,0.25-1.16
			s0.4-0.61,0.69-0.8s0.62-0.29,0.97-0.29c0.57,0,1.01,0.19,1.33,0.56c0.31,0.37,0.47,0.91,0.47,1.61v0.31h-2.96
			c0.01,0.43,0.14,0.78,0.38,1.04c0.24,0.27,0.55,0.4,0.92,0.4c0.26,0,0.49-0.05,0.67-0.16c0.18-0.11,0.34-0.25,0.48-0.43l0.46,0.36
			C38.38,38.56,37.83,38.84,37.1,38.84z M37,34.92c-0.3,0-0.55,0.11-0.76,0.33c-0.2,0.22-0.33,0.53-0.38,0.92h2.19v-0.06
			c-0.02-0.38-0.12-0.67-0.31-0.88C37.56,35.03,37.32,34.92,37,34.92z"/>
		<path class="st7" d="M43.14,37.66l1.02-3.28h0.8l-1.76,5.05c-0.27,0.73-0.7,1.09-1.3,1.09l-0.14-0.01l-0.28-0.05v-0.61l0.2,0.02
			c0.25,0,0.45-0.05,0.59-0.15c0.14-0.1,0.26-0.29,0.35-0.56l0.17-0.44l-1.56-4.32h0.82L43.14,37.66z"/>
		<path class="st7" d="M45.37,36.53c0-0.43,0.08-0.81,0.25-1.16c0.17-0.34,0.4-0.61,0.7-0.79c0.3-0.19,0.64-0.28,1.03-0.28
			c0.6,0,1.08,0.21,1.44,0.62s0.55,0.96,0.55,1.64v0.05c0,0.43-0.08,0.81-0.24,1.15s-0.4,0.6-0.7,0.79
			c-0.3,0.19-0.65,0.28-1.04,0.28c-0.59,0-1.07-0.21-1.44-0.62s-0.55-0.96-0.55-1.64V36.53z M46.12,36.62
			c0,0.48,0.11,0.87,0.34,1.17c0.23,0.29,0.53,0.44,0.9,0.44c0.38,0,0.68-0.15,0.9-0.45c0.22-0.3,0.34-0.71,0.34-1.25
			c0-0.48-0.11-0.87-0.34-1.17s-0.53-0.45-0.91-0.45c-0.37,0-0.67,0.15-0.89,0.44C46.23,35.65,46.12,36.07,46.12,36.62z"/>
		<path class="st7" d="M52.98,38.33c-0.29,0.34-0.72,0.51-1.28,0.51c-0.47,0-0.82-0.14-1.06-0.41s-0.37-0.67-0.37-1.2v-2.84h0.75
			v2.82c0,0.66,0.27,0.99,0.81,0.99c0.57,0,0.95-0.21,1.14-0.64v-3.18h0.75v4.37H53L52.98,38.33z"/>
		<path class="st7" d="M56.96,35.06c-0.11-0.02-0.24-0.03-0.37-0.03c-0.49,0-0.82,0.21-1,0.63v3.1h-0.75v-4.37h0.73l0.01,0.5
			c0.25-0.39,0.59-0.59,1.04-0.59c0.15,0,0.26,0.02,0.33,0.06V35.06z"/>
		<path class="st7" d="M63.39,36.62c0,0.67-0.15,1.2-0.46,1.61c-0.31,0.41-0.72,0.61-1.24,0.61c-0.55,0-0.98-0.19-1.28-0.59
			l-0.04,0.5h-0.69v-6.2h0.75v2.31c0.3-0.37,0.72-0.56,1.25-0.56c0.53,0,0.95,0.2,1.25,0.6c0.3,0.4,0.45,0.95,0.45,1.65V36.62z
			 M62.65,36.54c0-0.51-0.1-0.9-0.29-1.18c-0.2-0.28-0.48-0.42-0.85-0.42c-0.49,0-0.85,0.23-1.06,0.69v1.89
			c0.23,0.46,0.59,0.69,1.07,0.69c0.36,0,0.64-0.14,0.84-0.42S62.65,37.09,62.65,36.54z"/>
		<path class="st7" d="M67.03,38.33c-0.29,0.34-0.72,0.51-1.28,0.51c-0.47,0-0.82-0.14-1.06-0.41s-0.37-0.67-0.37-1.2v-2.84h0.75
			v2.82c0,0.66,0.27,0.99,0.81,0.99c0.57,0,0.95-0.21,1.14-0.64v-3.18h0.75v4.37h-0.71L67.03,38.33z"/>
		<path class="st7" d="M71.44,37.6c0-0.2-0.08-0.36-0.23-0.47c-0.15-0.11-0.42-0.21-0.8-0.29c-0.38-0.08-0.68-0.18-0.9-0.29
			c-0.22-0.11-0.39-0.25-0.49-0.4c-0.11-0.16-0.16-0.34-0.16-0.56c0-0.36,0.15-0.66,0.45-0.91c0.3-0.25,0.69-0.37,1.16-0.37
			c0.5,0,0.9,0.13,1.21,0.38c0.31,0.26,0.46,0.58,0.46,0.98H71.4c0-0.2-0.09-0.38-0.26-0.53c-0.17-0.15-0.39-0.22-0.66-0.22
			c-0.27,0-0.48,0.06-0.64,0.18s-0.23,0.27-0.23,0.46c0,0.18,0.07,0.32,0.21,0.41c0.14,0.09,0.4,0.18,0.77,0.26s0.68,0.18,0.91,0.3
			c0.23,0.12,0.4,0.25,0.52,0.42s0.17,0.36,0.17,0.6c0,0.39-0.16,0.7-0.47,0.94c-0.31,0.24-0.72,0.35-1.22,0.35
			c-0.35,0-0.66-0.06-0.93-0.19c-0.27-0.12-0.48-0.3-0.63-0.52c-0.15-0.22-0.23-0.46-0.23-0.72h0.75c0.01,0.25,0.11,0.45,0.3,0.6
			c0.19,0.15,0.43,0.22,0.74,0.22c0.28,0,0.51-0.06,0.68-0.17C71.35,37.94,71.44,37.79,71.44,37.6z"/>
		<path class="st7" d="M73.16,33.23c0-0.12,0.04-0.22,0.11-0.31s0.18-0.13,0.33-0.13s0.26,0.04,0.33,0.13
			c0.08,0.08,0.11,0.19,0.11,0.31c0,0.12-0.04,0.22-0.11,0.3c-0.08,0.08-0.19,0.12-0.33,0.12s-0.25-0.04-0.33-0.12
			C73.2,33.45,73.16,33.35,73.16,33.23z M73.97,38.76h-0.75v-4.37h0.75V38.76z"/>
		<path class="st7" d="M75.88,34.39l0.02,0.55c0.33-0.42,0.77-0.63,1.31-0.63c0.92,0,1.39,0.52,1.4,1.56v2.89h-0.75v-2.89
			c0-0.32-0.07-0.55-0.22-0.7c-0.14-0.15-0.36-0.23-0.66-0.23c-0.24,0-0.46,0.06-0.64,0.19c-0.18,0.13-0.33,0.3-0.43,0.51v3.11
			h-0.75v-4.37H75.88z"/>
		<path class="st7" d="M81.55,38.84c-0.59,0-1.07-0.19-1.45-0.58s-0.56-0.91-0.56-1.56v-0.14c0-0.43,0.08-0.82,0.25-1.16
			s0.4-0.61,0.69-0.8s0.62-0.29,0.97-0.29c0.57,0,1.01,0.19,1.33,0.56c0.31,0.37,0.47,0.91,0.47,1.61v0.31h-2.96
			c0.01,0.43,0.14,0.78,0.38,1.04c0.24,0.27,0.55,0.4,0.92,0.4c0.26,0,0.49-0.05,0.67-0.16c0.18-0.11,0.34-0.25,0.48-0.43l0.46,0.36
			C82.83,38.56,82.28,38.84,81.55,38.84z M81.45,34.92c-0.3,0-0.55,0.11-0.76,0.33c-0.2,0.22-0.33,0.53-0.38,0.92h2.19v-0.06
			c-0.02-0.38-0.12-0.67-0.31-0.88C82.01,35.03,81.77,34.92,81.45,34.92z"/>
		<path class="st7" d="M86.66,37.6c0-0.2-0.08-0.36-0.23-0.47c-0.15-0.11-0.42-0.21-0.8-0.29c-0.38-0.08-0.68-0.18-0.9-0.29
			c-0.22-0.11-0.39-0.25-0.49-0.4c-0.11-0.16-0.16-0.34-0.16-0.56c0-0.36,0.15-0.66,0.45-0.91c0.3-0.25,0.69-0.37,1.16-0.37
			c0.5,0,0.9,0.13,1.21,0.38c0.31,0.26,0.46,0.58,0.46,0.98h-0.75c0-0.2-0.09-0.38-0.26-0.53c-0.17-0.15-0.39-0.22-0.66-0.22
			c-0.27,0-0.48,0.06-0.64,0.18s-0.23,0.27-0.23,0.46c0,0.18,0.07,0.32,0.21,0.41c0.14,0.09,0.4,0.18,0.77,0.26s0.68,0.18,0.91,0.3
			c0.23,0.12,0.4,0.25,0.52,0.42s0.17,0.36,0.17,0.6c0,0.39-0.16,0.7-0.47,0.94c-0.31,0.24-0.72,0.35-1.22,0.35
			c-0.35,0-0.66-0.06-0.93-0.19c-0.27-0.12-0.48-0.3-0.63-0.52c-0.15-0.22-0.23-0.46-0.23-0.72h0.75c0.01,0.25,0.11,0.45,0.3,0.6
			c0.19,0.15,0.43,0.22,0.74,0.22c0.28,0,0.51-0.06,0.68-0.17C86.57,37.94,86.66,37.79,86.66,37.6z"/>
		<path class="st7" d="M90.93,37.6c0-0.2-0.08-0.36-0.23-0.47c-0.15-0.11-0.42-0.21-0.8-0.29c-0.38-0.08-0.68-0.18-0.9-0.29
			c-0.22-0.11-0.39-0.25-0.49-0.4c-0.11-0.16-0.16-0.34-0.16-0.56c0-0.36,0.15-0.66,0.45-0.91c0.3-0.25,0.69-0.37,1.16-0.37
			c0.5,0,0.9,0.13,1.21,0.38c0.31,0.26,0.46,0.58,0.46,0.98h-0.75c0-0.2-0.09-0.38-0.26-0.53c-0.17-0.15-0.39-0.22-0.66-0.22
			c-0.27,0-0.48,0.06-0.64,0.18s-0.23,0.27-0.23,0.46c0,0.18,0.07,0.32,0.21,0.41c0.14,0.09,0.4,0.18,0.77,0.26s0.68,0.18,0.91,0.3
			c0.23,0.12,0.4,0.25,0.52,0.42s0.17,0.36,0.17,0.6c0,0.39-0.16,0.7-0.47,0.94c-0.31,0.24-0.72,0.35-1.22,0.35
			c-0.35,0-0.66-0.06-0.93-0.19c-0.27-0.12-0.48-0.3-0.63-0.52c-0.15-0.22-0.23-0.46-0.23-0.72h0.75c0.01,0.25,0.11,0.45,0.3,0.6
			c0.19,0.15,0.43,0.22,0.74,0.22c0.28,0,0.51-0.06,0.68-0.17C90.84,37.94,90.93,37.79,90.93,37.6z"/>
		<path class="st7" d="M98.39,36.62c0,0.67-0.15,1.2-0.46,1.61c-0.3,0.41-0.72,0.61-1.24,0.61c-0.53,0-0.95-0.17-1.25-0.5v2.1h-0.75
			v-6.05h0.68l0.04,0.48c0.3-0.38,0.73-0.57,1.27-0.57c0.53,0,0.94,0.2,1.25,0.59c0.31,0.4,0.46,0.95,0.46,1.65V36.62z M97.64,36.54
			c0-0.49-0.1-0.88-0.31-1.17c-0.21-0.29-0.5-0.43-0.86-0.43c-0.45,0-0.79,0.2-1.02,0.6v2.09c0.22,0.4,0.57,0.6,1.03,0.6
			c0.36,0,0.64-0.14,0.85-0.43C97.53,37.52,97.64,37.1,97.64,36.54z"/>
		<path class="st7" d="M101.45,35.06c-0.11-0.02-0.24-0.03-0.37-0.03c-0.49,0-0.82,0.21-1,0.63v3.1h-0.75v-4.37h0.73l0.01,0.5
			c0.25-0.39,0.59-0.59,1.04-0.59c0.15,0,0.26,0.02,0.33,0.06V35.06z"/>
		<path class="st7" d="M101.86,36.53c0-0.43,0.08-0.81,0.25-1.16c0.17-0.34,0.4-0.61,0.7-0.79c0.3-0.19,0.64-0.28,1.03-0.28
			c0.6,0,1.08,0.21,1.44,0.62s0.55,0.96,0.55,1.64v0.05c0,0.43-0.08,0.81-0.24,1.15s-0.4,0.6-0.7,0.79
			c-0.3,0.19-0.65,0.28-1.04,0.28c-0.59,0-1.07-0.21-1.44-0.62s-0.55-0.96-0.55-1.64V36.53z M102.61,36.62
			c0,0.48,0.11,0.87,0.34,1.17c0.23,0.29,0.53,0.44,0.9,0.44c0.38,0,0.68-0.15,0.9-0.45c0.22-0.3,0.34-0.71,0.34-1.25
			c0-0.48-0.11-0.87-0.34-1.17s-0.53-0.45-0.91-0.45c-0.37,0-0.67,0.15-0.89,0.44C102.72,35.65,102.61,36.07,102.61,36.62z"/>
		<path class="st7" d="M108.53,38.23c0.27,0,0.5-0.08,0.7-0.24s0.31-0.36,0.33-0.61h0.71c-0.01,0.25-0.1,0.49-0.26,0.71
			c-0.16,0.23-0.37,0.41-0.64,0.54c-0.27,0.13-0.55,0.2-0.84,0.2c-0.6,0-1.07-0.2-1.42-0.6c-0.35-0.4-0.53-0.94-0.53-1.63v-0.13
			c0-0.43,0.08-0.8,0.23-1.14s0.38-0.59,0.67-0.77c0.29-0.18,0.64-0.27,1.04-0.27c0.49,0,0.9,0.15,1.22,0.44
			c0.32,0.29,0.5,0.67,0.52,1.14h-0.71c-0.02-0.28-0.13-0.51-0.32-0.7c-0.19-0.18-0.43-0.27-0.71-0.27c-0.38,0-0.67,0.14-0.88,0.41
			c-0.21,0.27-0.31,0.67-0.31,1.19v0.14c0,0.5,0.1,0.89,0.31,1.16C107.84,38.09,108.14,38.23,108.53,38.23z"/>
		<path class="st7" d="M112.92,38.84c-0.59,0-1.07-0.19-1.45-0.58s-0.56-0.91-0.56-1.56v-0.14c0-0.43,0.08-0.82,0.25-1.16
			s0.4-0.61,0.69-0.8s0.62-0.29,0.97-0.29c0.57,0,1.01,0.19,1.33,0.56c0.31,0.37,0.47,0.91,0.47,1.61v0.31h-2.96
			c0.01,0.43,0.14,0.78,0.38,1.04c0.24,0.27,0.55,0.4,0.92,0.4c0.26,0,0.49-0.05,0.67-0.16c0.18-0.11,0.34-0.25,0.48-0.43l0.46,0.36
			C114.2,38.56,113.65,38.84,112.92,38.84z M112.82,34.92c-0.3,0-0.55,0.11-0.76,0.33c-0.2,0.22-0.33,0.53-0.38,0.92h2.19v-0.06
			c-0.02-0.38-0.12-0.67-0.31-0.88C113.38,35.03,113.14,34.92,112.82,34.92z"/>
		<path class="st7" d="M118.03,37.6c0-0.2-0.08-0.36-0.23-0.47c-0.15-0.11-0.42-0.21-0.8-0.29c-0.38-0.08-0.68-0.18-0.9-0.29
			c-0.22-0.11-0.39-0.25-0.49-0.4c-0.11-0.16-0.16-0.34-0.16-0.56c0-0.36,0.15-0.66,0.45-0.91c0.3-0.25,0.69-0.37,1.16-0.37
			c0.5,0,0.9,0.13,1.21,0.38c0.31,0.26,0.46,0.58,0.46,0.98h-0.75c0-0.2-0.09-0.38-0.26-0.53c-0.17-0.15-0.39-0.22-0.66-0.22
			c-0.27,0-0.48,0.06-0.64,0.18s-0.23,0.27-0.23,0.46c0,0.18,0.07,0.32,0.21,0.41c0.14,0.09,0.4,0.18,0.77,0.26s0.68,0.18,0.91,0.3
			c0.23,0.12,0.4,0.25,0.52,0.42s0.17,0.36,0.17,0.6c0,0.39-0.16,0.7-0.47,0.94c-0.31,0.24-0.72,0.35-1.22,0.35
			c-0.35,0-0.66-0.06-0.93-0.19c-0.27-0.12-0.48-0.3-0.63-0.52c-0.15-0.22-0.23-0.46-0.23-0.72h0.75c0.01,0.25,0.11,0.45,0.3,0.6
			c0.19,0.15,0.43,0.22,0.74,0.22c0.28,0,0.51-0.06,0.68-0.17C117.95,37.94,118.03,37.79,118.03,37.6z"/>
		<path class="st7" d="M122.3,37.6c0-0.2-0.08-0.36-0.23-0.47c-0.15-0.11-0.42-0.21-0.8-0.29c-0.38-0.08-0.68-0.18-0.9-0.29
			c-0.22-0.11-0.39-0.25-0.49-0.4c-0.11-0.16-0.16-0.34-0.16-0.56c0-0.36,0.15-0.66,0.45-0.91c0.3-0.25,0.69-0.37,1.16-0.37
			c0.5,0,0.9,0.13,1.21,0.38c0.31,0.26,0.46,0.58,0.46,0.98h-0.75c0-0.2-0.09-0.38-0.26-0.53c-0.17-0.15-0.39-0.22-0.66-0.22
			c-0.27,0-0.48,0.06-0.64,0.18s-0.23,0.27-0.23,0.46c0,0.18,0.07,0.32,0.21,0.41c0.14,0.09,0.4,0.18,0.77,0.26s0.68,0.18,0.91,0.3
			c0.23,0.12,0.4,0.25,0.52,0.42s0.17,0.36,0.17,0.6c0,0.39-0.16,0.7-0.47,0.94c-0.31,0.24-0.72,0.35-1.22,0.35
			c-0.35,0-0.66-0.06-0.93-0.19c-0.27-0.12-0.48-0.3-0.63-0.52c-0.15-0.22-0.23-0.46-0.23-0.72h0.75c0.01,0.25,0.11,0.45,0.3,0.6
			c0.19,0.15,0.43,0.22,0.74,0.22c0.28,0,0.51-0.06,0.68-0.17C122.21,37.94,122.3,37.79,122.3,37.6z"/>
		<path class="st7" d="M125.83,38.84c-0.59,0-1.07-0.19-1.45-0.58s-0.56-0.91-0.56-1.56v-0.14c0-0.43,0.08-0.82,0.25-1.16
			s0.4-0.61,0.69-0.8s0.62-0.29,0.97-0.29c0.57,0,1.01,0.19,1.33,0.56c0.31,0.37,0.47,0.91,0.47,1.61v0.31h-2.96
			c0.01,0.43,0.14,0.78,0.38,1.04c0.24,0.27,0.55,0.4,0.92,0.4c0.26,0,0.49-0.05,0.67-0.16c0.18-0.11,0.34-0.25,0.48-0.43l0.46,0.36
			C127.11,38.56,126.56,38.84,125.83,38.84z M125.74,34.92c-0.3,0-0.55,0.11-0.76,0.33c-0.2,0.22-0.33,0.53-0.38,0.92h2.19v-0.06
			c-0.02-0.38-0.12-0.67-0.31-0.88C126.3,35.03,126.05,34.92,125.74,34.92z"/>
		<path class="st7" d="M130.94,37.6c0-0.2-0.08-0.36-0.23-0.47c-0.15-0.11-0.42-0.21-0.8-0.29c-0.38-0.08-0.68-0.18-0.9-0.29
			c-0.22-0.11-0.39-0.25-0.49-0.4c-0.11-0.16-0.16-0.34-0.16-0.56c0-0.36,0.15-0.66,0.45-0.91c0.3-0.25,0.69-0.37,1.16-0.37
			c0.5,0,0.9,0.13,1.21,0.38c0.31,0.26,0.46,0.58,0.46,0.98h-0.75c0-0.2-0.09-0.38-0.26-0.53c-0.17-0.15-0.39-0.22-0.66-0.22
			c-0.27,0-0.48,0.06-0.64,0.18s-0.23,0.27-0.23,0.46c0,0.18,0.07,0.32,0.21,0.41c0.14,0.09,0.4,0.18,0.77,0.26s0.68,0.18,0.91,0.3
			c0.23,0.12,0.4,0.25,0.52,0.42s0.17,0.36,0.17,0.6c0,0.39-0.16,0.7-0.47,0.94c-0.31,0.24-0.72,0.35-1.22,0.35
			c-0.35,0-0.66-0.06-0.93-0.19c-0.27-0.12-0.48-0.3-0.63-0.52c-0.15-0.22-0.23-0.46-0.23-0.72h0.75c0.01,0.25,0.11,0.45,0.3,0.6
			c0.19,0.15,0.43,0.22,0.74,0.22c0.28,0,0.51-0.06,0.68-0.17C130.86,37.94,130.94,37.79,130.94,37.6z"/>
	</g>
</g>
</svg>
